<svg id="Layer_1" data-name="Layer 1" xmlns="http://www.w3.org/2000/svg" viewBox="0 0 226.77 340.16"><defs><style>.cls-1,.cls-2{fill:#1d1d1b;}.cls-1,.cls-2,.cls-3,.cls-4,.cls-5{stroke:#a9d9d7;stroke-miterlimit:10;}.cls-1,.cls-3{stroke-width:0.5px;}.cls-2,.cls-4{stroke-width:0.25px;}.cls-3,.cls-4,.cls-5{fill:none;}.cls-5{stroke-width:2px;}.cls-6{fill:#a9d9d7;}.cls-7{font-size:5px;}.cls-7,.cls-8{fill:#c6c6c7;font-family:HelveticaNeue, Helvetica Neue;}.cls-8{font-size:6px;}</style></defs><title>silo-stor2</title><line class="cls-1" x1="73.84" y1="222.28" x2="73.84" y2="68.28"/><line class="cls-2" x1="149.84" y1="222.28" x2="73.84" y2="222.28"/><line class="cls-1" x1="149.84" y1="68.28" x2="149.84" y2="222.28"/><line class="cls-2" x1="73.84" y1="68.28" x2="149.84" y2="68.28"/><polyline class="cls-3" points="73.84 68.28 104.03 43.66 119.66 43.66 149.84 68.28"/><line class="cls-3" x1="119.54" y1="284.49" x2="149.84" y2="222.28"/><line class="cls-4" x1="104.15" y1="284.49" x2="119.54" y2="284.49"/><line class="cls-3" x1="73.84" y1="222.28" x2="104.15" y2="284.49"/><line class="cls-4" x1="73.84" y1="93.95" x2="149.84" y2="93.95"/><line class="cls-4" x1="73.84" y1="119.62" x2="149.84" y2="119.62"/><line class="cls-4" x1="73.84" y1="145.28" x2="149.84" y2="145.28"/><line class="cls-4" x1="73.84" y1="170.95" x2="149.84" y2="170.95"/><line class="cls-4" x1="73.84" y1="196.62" x2="149.84" y2="196.62"/><rect class="cls-4" x="71.09" y="210.78" width="2.75" height="86.75"/><rect class="cls-4" x="149.84" y="210.78" width="2.75" height="86.75"/><polyline class="cls-3" points="104.15 284.49 104.15 297.53 119.54 297.53 119.54 284.49"/><line class="cls-5" x1="76.39" y1="68.28" x2="76.39" y2="222.28"/><line class="cls-5" x1="147.26" y1="68.28" x2="147.26" y2="222.28"/><rect class="cls-6" x="53.34" y="68.28" width="3" height="154"/><rect class="cls-6" x="167.26" y="68.28" width="3" height="154"/><text class="cls-7" transform="translate(29.97 222.4)"><tspan xml:space="preserve">  0.00</tspan></text><text class="cls-7" transform="translate(29.97 209.85)">10.00</text><text class="cls-7" transform="translate(29.97 197.31)">20.00</text><text class="cls-7" transform="translate(29.97 184.76)">30.00</text><text class="cls-7" transform="translate(29.97 172.21)">40.00</text><text class="cls-7" transform="translate(29.97 159.67)">50.00</text><text class="cls-7" transform="translate(29.97 147.12)">60.00</text><text class="cls-7" transform="translate(29.97 134.58)">70.00</text><text class="cls-7" transform="translate(29.97 122.03)">80.00</text><text class="cls-7" transform="translate(29.97 109.49)">90.00</text><text class="cls-7" transform="translate(29.97 96.94)">100.00</text><text class="cls-7" transform="translate(29.97 84.4)">110.00</text><text class="cls-7" transform="translate(29.97 71.85)">120.00</text><text class="cls-8" transform="translate(32.82 56.65)">KG</text><text class="cls-7" transform="translate(177.72 222.4)"><tspan xml:space="preserve">  0.00</tspan></text><text class="cls-7" transform="translate(177.72 209.85)">20.00</text><text class="cls-7" transform="translate(177.72 197.31)">40.00</text><text class="cls-7" transform="translate(177.72 184.76)">60.00</text><text class="cls-7" transform="translate(177.72 172.21)">80.00</text><text class="cls-7" transform="translate(177.72 159.67)">100.00</text><text class="cls-7" transform="translate(177.72 147.12)">120.00</text><text class="cls-7" transform="translate(177.72 134.58)">140.00</text><text class="cls-7" transform="translate(177.72 122.03)">160.00</text><text class="cls-7" transform="translate(177.72 109.49)">180.00</text><text class="cls-7" transform="translate(177.72 96.94)">200.00</text><text class="cls-7" transform="translate(177.72 84.4)">220.00</text><text class="cls-7" transform="translate(177.72 71.85)">240.00</text><text class="cls-8" transform="translate(178.74 56.65)">Liter</text></svg>