<svg id="Layer_1" data-name="Layer 1" xmlns="http://www.w3.org/2000/svg" viewBox="0 0 113.39 283.46"><defs><style>.cls-1{fill:#1d1d1b;}.cls-1,.cls-2,.cls-3,.cls-4{stroke:#a9d9d7;stroke-miterlimit:10;}.cls-1,.cls-3{stroke-width:0.25px;}.cls-2,.cls-3,.cls-4{fill:none;}.cls-2{stroke-width:0.5px;}.cls-4{stroke-width:2px;}</style></defs><title>silo-stor</title><line class="cls-1" x1="94.57" y1="193.2" x2="18.57" y2="193.2"/><line class="cls-1" x1="18.57" y1="39.2" x2="94.57" y2="39.2"/><polyline class="cls-2" points="94.57 193.2 94.57 39.2 64.38 14.57 48.75 14.57 18.57 39.2 18.57 193.2"/><line class="cls-2" x1="64.27" y1="255.4" x2="94.57" y2="193.2"/><line class="cls-3" x1="48.87" y1="255.4" x2="64.27" y2="255.4"/><line class="cls-2" x1="18.57" y1="193.2" x2="48.87" y2="255.4"/><line class="cls-3" x1="18.57" y1="64.86" x2="94.57" y2="64.86"/><line class="cls-3" x1="18.57" y1="90.53" x2="94.57" y2="90.53"/><line class="cls-3" x1="18.57" y1="116.2" x2="94.57" y2="116.2"/><line class="cls-3" x1="18.57" y1="141.86" x2="94.57" y2="141.86"/><line class="cls-3" x1="18.57" y1="167.53" x2="94.57" y2="167.53"/><rect class="cls-3" x="15.82" y="181.7" width="2.75" height="86.75"/><rect class="cls-3" x="94.57" y="181.7" width="2.75" height="86.75"/><polyline class="cls-2" points="48.87 255.4 48.87 268.45 64.27 268.45 64.27 255.4"/><line class="cls-4" x1="21.13" y1="39.2" x2="21.13" y2="193.2"/><line class="cls-4" x1="92.01" y1="39.2" x2="92.01" y2="193.2"/></svg>