<svg id="Layer_1" data-name="Layer 1" xmlns="http://www.w3.org/2000/svg" viewBox="0 0 113.39 113.39"><defs><style>.cls-1{font-size:12px;}.cls-1,.cls-2,.cls-7{fill:#c6c6c7;font-family:HelveticaNeue, Helvetica Neue;}.cls-2{font-size:8px;}.cls-3,.cls-5{fill:none;stroke-miterlimit:10;}.cls-3{stroke:#347674;}.cls-4{fill:#a7ce86;opacity:0.5;}.cls-5{stroke:#a9d9d7;stroke-width:0.25px;}.cls-6{fill:#a9d9d7;}.cls-7{font-size:7px;}</style></defs><title>silo1</title><text class="cls-1" transform="translate(41.36 14.51)">Silo 1</text><text class="cls-2" transform="translate(76.53 58.83)">57%</text><path class="cls-3" d="M87.72,22.81a48,48,0,1,1-62,0"/><polyline class="cls-4" points="46.54 75 46.54 54.12 66.85 54.12 66.85 75"/><polygon class="cls-5" points="58.75 95.11 54.64 95.11 54.6 91.62 46.54 75 46.54 33.85 54.6 27.27 58.78 27.27 66.85 33.85 66.85 75 58.75 91.62 58.75 95.11"/><rect class="cls-6" x="46.01" y="70.28" width="0.53" height="24.83"/><rect class="cls-6" x="66.85" y="70.28" width="0.53" height="24.83"/><circle class="cls-4" cx="33.94" cy="43.4" r="3.79"/><circle class="cls-4" cx="33.94" cy="57.4" r="3.79"/><circle class="cls-4" cx="33.94" cy="71.4" r="3.79"/><text class="cls-7" transform="translate(21.88 46.01)">L</text><text class="cls-7" transform="translate(21.88 60.42)">T</text><text class="cls-7" transform="translate(21.88 74.01)">H</text></svg>