<svg id="Layer_1" data-name="Layer 1" xmlns="http://www.w3.org/2000/svg" viewBox="0 0 340.16 113.39"><defs><style>.cls-1,.cls-2,.cls-3{fill:none;stroke-miterlimit:10;}.cls-1,.cls-2{stroke:#3fa09f;}.cls-1{stroke-width:0.25px;opacity:0.1;}.cls-2,.cls-3{stroke-width:0.5px;}.cls-3{stroke:#e52421;}</style></defs><title>tabell2</title><line class="cls-1" x1="35.08" y1="14.4" x2="35.08" y2="98.98"/><line class="cls-1" x1="38.65" y1="14.4" x2="38.65" y2="98.98"/><line class="cls-1" x1="42.23" y1="14.4" x2="42.23" y2="98.98"/><line class="cls-1" x1="45.8" y1="14.4" x2="45.8" y2="98.98"/><line class="cls-1" x1="49.37" y1="14.4" x2="49.37" y2="98.98"/><line class="cls-1" x1="52.95" y1="14.4" x2="52.95" y2="98.98"/><line class="cls-1" x1="56.52" y1="14.4" x2="56.52" y2="98.98"/><line class="cls-1" x1="60.1" y1="14.4" x2="60.1" y2="98.98"/><line class="cls-1" x1="63.67" y1="14.4" x2="63.67" y2="98.98"/><line class="cls-1" x1="67.25" y1="14.4" x2="67.25" y2="98.98"/><line class="cls-1" x1="13.63" y1="14.4" x2="13.63" y2="98.98"/><line class="cls-1" x1="17.21" y1="14.4" x2="17.21" y2="98.98"/><line class="cls-1" x1="20.78" y1="14.4" x2="20.78" y2="98.98"/><line class="cls-1" x1="24.35" y1="14.4" x2="24.35" y2="98.98"/><line class="cls-1" x1="27.93" y1="14.4" x2="27.93" y2="98.98"/><line class="cls-1" x1="31.5" y1="14.4" x2="31.5" y2="98.98"/><line class="cls-1" x1="10.06" y1="14.4" x2="10.06" y2="98.98"/><line class="cls-1" x1="70.82" y1="14.4" x2="70.82" y2="98.98"/><line class="cls-1" x1="74.39" y1="14.4" x2="74.39" y2="98.98"/><line class="cls-1" x1="77.97" y1="14.4" x2="77.97" y2="98.98"/><line class="cls-1" x1="81.54" y1="14.4" x2="81.54" y2="98.98"/><line class="cls-1" x1="85.12" y1="14.4" x2="85.12" y2="98.98"/><line class="cls-1" x1="88.69" y1="14.4" x2="88.69" y2="98.98"/><line class="cls-1" x1="92.27" y1="14.4" x2="92.27" y2="98.98"/><line class="cls-1" x1="95.84" y1="14.4" x2="95.84" y2="98.98"/><line class="cls-1" x1="99.42" y1="14.4" x2="99.42" y2="98.98"/><line class="cls-1" x1="102.99" y1="14.4" x2="102.99" y2="98.98"/><line class="cls-1" x1="106.56" y1="14.4" x2="106.56" y2="98.98"/><line class="cls-1" x1="110.14" y1="14.4" x2="110.14" y2="98.98"/><line class="cls-1" x1="113.71" y1="14.4" x2="113.71" y2="98.98"/><line class="cls-1" x1="117.29" y1="14.4" x2="117.29" y2="98.98"/><line class="cls-1" x1="120.86" y1="14.4" x2="120.86" y2="98.98"/><line class="cls-1" x1="124.44" y1="14.4" x2="124.44" y2="98.98"/><line class="cls-1" x1="128.01" y1="14.4" x2="128.01" y2="98.98"/><line class="cls-1" x1="131.58" y1="14.4" x2="131.58" y2="98.98"/><line class="cls-1" x1="135.16" y1="14.4" x2="135.16" y2="98.98"/><line class="cls-1" x1="138.73" y1="14.4" x2="138.73" y2="98.98"/><line class="cls-1" x1="142.31" y1="14.4" x2="142.31" y2="98.98"/><line class="cls-1" x1="145.88" y1="14.4" x2="145.88" y2="98.98"/><line class="cls-1" x1="149.46" y1="14.4" x2="149.46" y2="98.98"/><line class="cls-1" x1="153.03" y1="14.4" x2="153.03" y2="98.98"/><line class="cls-1" x1="156.6" y1="14.4" x2="156.6" y2="98.98"/><line class="cls-1" x1="160.18" y1="14.4" x2="160.18" y2="98.98"/><line class="cls-1" x1="163.75" y1="14.4" x2="163.75" y2="98.98"/><line class="cls-1" x1="167.33" y1="14.4" x2="167.33" y2="98.98"/><line class="cls-1" x1="170.9" y1="14.4" x2="170.9" y2="98.98"/><line class="cls-1" x1="174.48" y1="14.4" x2="174.48" y2="98.98"/><line class="cls-1" x1="178.05" y1="14.4" x2="178.05" y2="98.98"/><line class="cls-1" x1="181.62" y1="14.4" x2="181.62" y2="98.98"/><line class="cls-1" x1="185.2" y1="14.4" x2="185.2" y2="98.98"/><line class="cls-1" x1="188.77" y1="14.4" x2="188.77" y2="98.98"/><line class="cls-1" x1="192.35" y1="14.4" x2="192.35" y2="98.98"/><line class="cls-1" x1="195.92" y1="14.4" x2="195.92" y2="98.98"/><line class="cls-1" x1="199.5" y1="14.4" x2="199.5" y2="98.98"/><line class="cls-1" x1="203.07" y1="14.4" x2="203.07" y2="98.98"/><line class="cls-1" x1="206.64" y1="14.4" x2="206.64" y2="98.98"/><line class="cls-1" x1="210.22" y1="14.4" x2="210.22" y2="98.98"/><line class="cls-1" x1="213.79" y1="14.4" x2="213.79" y2="98.98"/><line class="cls-1" x1="217.37" y1="14.4" x2="217.37" y2="98.98"/><line class="cls-1" x1="220.94" y1="14.4" x2="220.94" y2="98.98"/><line class="cls-1" x1="224.52" y1="14.4" x2="224.52" y2="98.98"/><line class="cls-1" x1="228.09" y1="14.4" x2="228.09" y2="98.98"/><line class="cls-1" x1="231.66" y1="14.4" x2="231.66" y2="98.98"/><line class="cls-1" x1="235.24" y1="14.4" x2="235.24" y2="98.98"/><line class="cls-1" x1="238.81" y1="14.4" x2="238.81" y2="98.98"/><line class="cls-1" x1="242.39" y1="14.4" x2="242.39" y2="98.98"/><line class="cls-1" x1="245.96" y1="14.4" x2="245.96" y2="98.98"/><line class="cls-1" x1="249.54" y1="14.4" x2="249.54" y2="98.98"/><line class="cls-1" x1="253.11" y1="14.4" x2="253.11" y2="98.98"/><line class="cls-1" x1="256.68" y1="14.4" x2="256.68" y2="98.98"/><line class="cls-1" x1="260.26" y1="14.4" x2="260.26" y2="98.98"/><line class="cls-1" x1="263.83" y1="14.4" x2="263.83" y2="98.98"/><line class="cls-1" x1="267.41" y1="14.4" x2="267.41" y2="98.98"/><line class="cls-1" x1="270.98" y1="14.4" x2="270.98" y2="98.98"/><line class="cls-1" x1="274.56" y1="14.4" x2="274.56" y2="98.98"/><line class="cls-1" x1="278.13" y1="14.4" x2="278.13" y2="98.98"/><line class="cls-1" x1="281.7" y1="14.4" x2="281.7" y2="98.98"/><line class="cls-1" x1="285.28" y1="14.4" x2="285.28" y2="98.98"/><line class="cls-1" x1="292.43" y1="14.4" x2="292.43" y2="98.98"/><line class="cls-1" x1="288.85" y1="14.4" x2="288.85" y2="98.98"/><line class="cls-1" x1="296" y1="14.4" x2="296" y2="98.98"/><line class="cls-1" x1="299.58" y1="14.4" x2="299.58" y2="98.98"/><line class="cls-1" x1="303.15" y1="14.4" x2="303.15" y2="98.98"/><line class="cls-1" x1="306.72" y1="14.4" x2="306.72" y2="98.98"/><line class="cls-1" x1="310.3" y1="14.4" x2="310.3" y2="98.98"/><line class="cls-1" x1="313.87" y1="14.4" x2="313.87" y2="98.98"/><line class="cls-1" x1="317.45" y1="14.4" x2="317.45" y2="98.98"/><line class="cls-1" x1="321.02" y1="14.4" x2="321.02" y2="98.98"/><line class="cls-1" x1="324.6" y1="14.4" x2="324.6" y2="98.98"/><line class="cls-1" x1="328.17" y1="14.4" x2="328.17" y2="98.98"/><line class="cls-1" x1="331.74" y1="14.4" x2="331.74" y2="98.98"/><line class="cls-2" x1="331.74" y1="26.63" x2="10.06" y2="26.63"/><line class="cls-3" x1="331.74" y1="86.76" x2="10.06" y2="86.76"/></svg>